<svg width="109" height="109" viewBox="0 0 109 109" fill="none" xmlns="http://www.w3.org/2000/svg">
<circle cx="54.5" cy="54.5" r="54.5" fill="url(#paint0_linear)"/>
<path d="M32.9822 52.0049C19.2781 50.1913 19.5129 26.5673 18.728 16.5756C24.1389 31.4359 39.4076 36.8707 49.5282 41.1568C59.6488 45.4429 53.4154 68.284 52.5661 64.832L52.5443 64.7432C51.6884 61.2596 49.9669 54.2526 32.9822 52.0049Z" fill="url(#paint1_linear)"/>
<path d="M62.9751 55.6343C56.4099 54.3651 52.4761 65.9065 51.3299 71.8359C54.4396 66.7592 58.7192 66.6402 70.7068 68.4844C82.6944 70.3286 89.9752 48.0787 86.9537 52.6992C83.9322 57.3198 71.1816 57.2207 62.9751 55.6343Z" fill="url(#paint2_linear)"/>
<path d="M50.3305 74.4037C49.9692 73.3875 53.4392 59.2685 66.7632 61.7462C66.1018 61.6948 65.4364 61.6914 64.7748 61.7417C57.9403 62.2618 53.1033 68.492 50.7068 74.4123C50.3669 75.2518 50.6498 75.3016 50.3305 74.4037Z" fill="#476B01"/>
<path d="M41.5145 44.0961C65.9945 54.3087 47.5717 74.3824 49.1079 90.8449C49.575 95.8498 41.9486 96.6874 41.5144 91.6712C39.9402 73.4813 64.3084 58.0068 41.5145 44.0961Z" fill="url(#paint3_linear)"/>
<ellipse cx="57.2012" cy="90.0961" rx="14.5" ry="14" fill="#795217"/>
<path d="M63.5 81C58.6251 78.0751 53 79.1667 50 81C52.8333 81.3333 57.5 81.5 61 84C64.3214 86.3724 67.5 89.3333 68.5 92.5C68.6667 90.8333 68.5 84 63.5 81Z" fill="#E0AF64"/>
<defs>
<linearGradient id="paint0_linear" x1="54.5" y1="0" x2="54.5" y2="109" gradientUnits="userSpaceOnUse">
<stop stop-color="#D1F4FF"/>
<stop offset="1" stop-color="#FFE3BA"/>
</linearGradient>
<linearGradient id="paint1_linear" x1="20" y1="23.5" x2="54" y2="59" gradientUnits="userSpaceOnUse">
<stop stop-color="#9ED00E"/>
<stop offset="1" stop-color="#7BA700"/>
</linearGradient>
<linearGradient id="paint2_linear" x1="88" y1="53" x2="54.5" y2="65" gradientUnits="userSpaceOnUse">
<stop stop-color="#9CD006"/>
<stop offset="1" stop-color="#749A09"/>
</linearGradient>
<linearGradient id="paint3_linear" x1="47.8814" y1="44.0961" x2="47.8814" y2="95.0418" gradientUnits="userSpaceOnUse">
<stop stop-color="#5D8C00"/>
<stop offset="1" stop-color="#2E4600"/>
</linearGradient>
</defs>
</svg>
